Source: JFK.1991.720p.BluRay.x264-SiNNERS.

Subs: Arabic, Brazilian, Czech, Danish, Dutch, English, French, Greek, Hungarian, Slovenian, Swedish, Turkish and Vietnamese.

Sample and Screens included.

General
Complete name                    : JFK-720p DC MP4 AAC BRRip 1991-CC.mp4
Format                           : MPEG-4
Format profile                   : Base Media
Codec ID                         : isom
File size                        : 3.17 GiB
Duration                         : 3h 25mn
Overall bit rate                 : 2 205 Kbps
Encoded date                     : UTC 2012-03-12 09:05:40


Video
ID                               : 1
Format                           : AVC
Format/Info                      : Advanced Video Codec
Format profile                   : High@L3.1
Format settings, CABAC           : Yes
Format settings, ReFrames        : 5 frames
Codec ID                         : avc1
Codec ID/Info                    : Advanced Video Coding
Duration                         : 3h 25mn
Bit rate mode                    : Variable
Bit rate                         : 1 816 Kbps
Nominal bit rate                 : 1 826 Kbps
Maximum bit rate                 : 17.0 Mbps
Width                            : 1 280 pixels
Height                           : 528 pixels
Display aspect ratio             : 2.40:1
Frame rate mode                  : Variable
Frame rate                       : 23.976 fps
Minimum frame rate               : 15.873 fps
Maximum frame rate               : 24.390 fps
Resolution                       : 24 bits
Colorimetry                      : 4:2:0
Scan type                        : Progressive
Bits/(Pixel*Frame)               : 0.112
Stream size                      : 2.61 GiB (82%)
Writing library                  : x264 core 112

Audio
ID                               : 2
Format                           : AAC
Format/Info                      : Advanced Audio Codec
Format version                   : Version 4
Format profile                   : LC
Format settings, SBR             : No
Codec ID                         : 40
Duration                         : 3h 25mn
Bit rate mode                    : Variable
Bit rate                         : 384 Kbps
Maximum bit rate                 : 747 Kbps
Channel(s)                       : 6 channels
Channel positions                : Front: L C R, Rear: L R, LFE
Sampling rate                    : 48.0 KHz
Resolution                       : 16 bits
Stream size                      : 565 MiB (17%)
Language                         : English